<svg width="90" height="90" viewBox="0 0 90 90" fill="none" xmlns="http://www.w3.org/2000/svg">
<path d="M45 0C20.1473 0 0 20.1473 0 45C0 69.8527 20.1473 90 45 90C69.8527 90 90 69.8527 90 45C90 20.1473 69.8527 0 45 0ZM45 87.1875C21.7012 87.1875 2.8125 68.2988 2.8125 45C2.8125 21.7012 21.7012 2.8125 45 2.8125C68.2988 2.8125 87.1875 21.7012 87.1875 45C87.1875 68.2988 68.2988 87.1875 45 87.1875Z" fill="#9179FA"/>
<path d="M45 52.0312C49.6575 52.0312 53.4375 48.2512 53.4375 43.5938V30.9375C53.4375 26.2786 49.6575 22.5 45 22.5C40.3411 22.5 36.5625 26.2786 36.5625 30.9375V43.5938C36.5625 48.2512 40.3411 52.0312 45 52.0312ZM39.375 30.9375C39.375 27.8311 41.8936 25.3125 45 25.3125C48.1064 25.3125 50.625 27.8311 50.625 30.9375V43.5938C50.625 46.7002 48.1064 49.2188 45 49.2188C41.8936 49.2188 39.375 46.7002 39.375 43.5938V30.9375ZM59.0625 43.5938C59.0625 42.8161 58.4339 42.1875 57.6562 42.1875C56.8786 42.1875 56.25 42.8161 56.25 43.5938C56.25 49.8066 51.2128 54.8438 45 54.8438C38.7872 54.8438 33.75 49.8066 33.75 43.5938C33.75 42.8161 33.1214 42.1875 32.3438 42.1875C31.5661 42.1875 30.9375 42.8161 30.9375 43.5938C30.9375 50.8866 36.488 56.8786 43.5938 57.5845V64.6875H39.375C38.5973 64.6875 37.9688 65.3161 37.9688 66.0938C37.9688 66.8714 38.5973 67.5 39.375 67.5H50.625C51.4027 67.5 52.0312 66.8714 52.0312 66.0938C52.0312 65.3161 51.4027 64.6875 50.625 64.6875H46.4062V57.5845C53.512 56.8786 59.0625 50.8866 59.0625 43.5938Z" fill="#9179FA"/>
</svg>
